<svg width="14" height="15" viewBox="0 0 14 15" fill="none" xmlns="http://www.w3.org/2000/svg">
<path d="M4.7894 1.62147C5.42409 -0.540489 8.57591 -0.540488 9.2106 1.62147L9.63426 3.06458L11.1317 2.69969C13.3751 2.15304 14.951 4.80647 13.3423 6.42178L12.2685 7.5L13.3423 8.57822C14.951 10.1935 13.3751 12.847 11.1317 12.3003L9.63426 11.9354L9.2106 13.3785C8.57591 15.5405 5.42409 15.5405 4.7894 13.3785L4.36574 11.9354L2.86829 12.3003C0.624916 12.847 -0.950991 10.1935 0.657685 8.57822L1.73148 7.5L0.657685 6.42178C-0.950991 4.80647 0.624916 2.15304 2.86829 2.69969L4.36574 3.06458L4.7894 1.62147Z" fill="#9DC6C9"/>
</svg>
