<svg width="72" height="58" viewBox="0 0 72 58" fill="none" xmlns="http://www.w3.org/2000/svg">
<g clip-path="url(#clip0_2003_528)">
<path d="M12.4165 13.9542C12.4165 13.7923 12.5303 13.657 12.6809 13.6244C12.7035 13.6196 12.7275 13.6168 12.7515 13.6168C12.9359 13.6168 13.0865 13.7682 13.0865 13.9542C13.0865 14.1397 12.9359 14.2911 12.7515 14.2911C12.5943 14.2911 12.4631 14.1822 12.4269 14.0356C12.4203 14.0096 12.4165 13.9825 12.4165 13.9542ZM13.9711 11.7547C13.9711 11.598 14.0775 11.4665 14.2214 11.4291C14.2483 11.4216 14.277 11.4178 14.3062 11.4178C14.4916 11.4178 14.6412 11.5687 14.6412 11.7547C14.6412 11.8068 14.63 11.8559 14.6082 11.9C14.5787 11.9369 14.5498 11.9743 14.5222 12.0121C14.4643 12.0614 14.3885 12.0916 14.3062 12.0916C14.1218 12.0916 13.9721 11.9411 13.9711 11.7561V11.7547ZM15.6482 9.69386C15.6482 9.50784 15.7988 9.35694 15.9832 9.35694C15.9907 9.35694 15.9978 9.35744 16.0053 9.35833C16.1804 9.36918 16.3182 9.51549 16.3182 9.69386C16.3182 9.87935 16.1681 10.0308 15.9832 10.0308C15.8134 10.0308 15.6726 9.9026 15.6515 9.73739C15.6491 9.72321 15.6482 9.70853 15.6482 9.69386ZM19.6576 6.25263C19.6567 6.25315 19.6557 6.25404 19.6548 6.25454C19.5509 6.32784 19.4351 6.3752 19.3155 6.39511C19.1387 6.42538 18.9542 6.39653 18.7885 6.30614C18.7174 6.2677 18.6554 6.21242 18.6083 6.14667C18.4394 5.90717 18.4959 5.57496 18.7331 5.40504L18.7731 5.37668C19.2158 5.06007 19.7329 4.89832 20.2557 4.89832C20.5761 4.89832 20.8983 4.95883 21.2071 5.0828H21.2076C21.2142 5.08573 21.2217 5.08853 21.2288 5.09084L21.2627 5.10502L19.6576 6.25263ZM21.6 5.61658C21.6466 6.50338 21.2444 7.34014 20.5244 7.85488L20.4845 7.88336C20.3696 7.96571 20.2298 7.99789 20.09 7.97413C19.9508 7.95051 19.8294 7.87393 19.7475 7.75786C19.7009 7.69161 19.6689 7.61449 19.6562 7.53507C19.6058 7.22177 19.7339 6.9137 19.9899 6.72873C19.9907 6.72821 19.9918 6.72731 19.9926 6.72679L21.5981 5.57918L21.6 5.61658ZM19.9494 9.25185C19.755 9.39051 19.5193 9.44489 19.284 9.40519C19.0493 9.36496 18.844 9.23576 18.7061 9.04031C18.6272 8.92911 18.5745 8.79902 18.5528 8.66368C18.4733 8.17151 18.67 7.68548 19.0667 7.38928C19.0662 7.4678 19.0723 7.54734 19.085 7.62777C19.1119 7.79526 19.1781 7.95664 19.2755 8.09478C19.4473 8.33761 19.7023 8.49848 19.9937 8.54814C20.0562 8.55862 20.1188 8.56384 20.1809 8.56384C20.4087 8.56384 20.6303 8.49286 20.8199 8.3579L20.8598 8.32905C20.8833 8.31246 20.9064 8.29548 20.9295 8.27849C20.682 8.63381 20.372 8.94992 20.0073 9.21023L19.9494 9.25185ZM17.3652 6.98328C17.2456 6.91844 17.1407 6.82562 17.0616 6.71403C16.777 6.31086 16.8716 5.75013 17.272 5.46427L17.3304 5.42265C17.695 5.16144 18.0945 4.9707 18.5105 4.85235C18.486 4.86845 18.462 4.88503 18.438 4.90202L18.398 4.93087C17.9002 5.28629 17.7835 5.98338 18.1369 6.48359C18.2348 6.62173 18.3647 6.73765 18.5133 6.81808C18.5669 6.84745 18.622 6.87248 18.6775 6.89379C18.6159 6.94308 18.5556 6.99222 18.4949 7.0429C18.4949 7.0429 18.4945 7.04342 18.494 7.04342C18.1321 7.19485 17.7204 7.17685 17.3652 6.98328ZM42.0376 1.64209L42.2522 1.63545C43.2285 1.60571 44.1806 1.92603 44.9407 2.51664C45.2089 2.72384 45.4528 2.96565 45.6659 3.23682L47.0277 4.9721L44.3531 4.99623C44.3404 4.99675 44.3285 4.99675 44.3158 4.99675C43.0431 4.99675 41.816 4.399 41.0267 3.39346L39.7694 1.79159L39.7074 1.71218L42.037 1.64209H42.0376ZM33.3947 7.13751C33.0705 7.27247 32.7105 7.24871 32.4065 7.07228C32.1024 6.8957 31.9016 6.59377 31.8561 6.24357C31.8103 5.89388 31.9262 5.55033 32.1744 5.30047L35.1296 2.32921L34.0477 6.38848C33.957 6.7291 33.7189 7.00218 33.3947 7.13751ZM36.5764 7.51605C36.3633 7.79578 36.0391 7.95664 35.6885 7.95664C35.3375 7.95664 35.0135 7.79578 34.7997 7.51605C34.6478 7.316 34.5681 7.07739 34.5681 6.83277C34.5681 6.73536 34.5808 6.63641 34.6068 6.53887L35.6885 2.48011L36.7698 6.53887C36.8607 6.87963 36.7901 7.23595 36.5764 7.51605ZM39.5201 6.24357C39.4745 6.59377 39.2739 6.8957 38.9705 7.07228C38.6661 7.24871 38.3057 7.27247 37.9819 7.13751C37.6573 7.00218 37.4196 6.7291 37.3289 6.38848L36.2476 2.32973L39.2019 5.30047C39.4504 5.55033 39.5663 5.89388 39.5201 6.24357ZM36.0223 0.897264C36.0231 0.904287 36.0235 0.911947 36.0235 0.918969C36.0235 1.01791 35.9807 1.10741 35.912 1.16882L35.8989 1.15605C35.903 1.16078 35.9068 1.16512 35.9105 1.16984C35.8519 1.22372 35.7742 1.25589 35.6885 1.25589C35.603 1.25589 35.5252 1.22372 35.4658 1.16984C35.4692 1.16512 35.4735 1.16078 35.4777 1.15605L35.4646 1.16882C35.3959 1.10779 35.3531 1.01791 35.3531 0.918969C35.3531 0.911947 35.3535 0.904287 35.3545 0.897264C35.3647 0.721718 35.5106 0.582048 35.6885 0.582048C35.8654 0.582048 36.0113 0.721718 36.0223 0.897264ZM26.4353 2.51664C27.1963 1.92603 28.1476 1.60571 29.124 1.63545L31.6688 1.71218L30.3497 3.39346C29.5527 4.40896 28.3081 5.0085 27.0235 4.99623L24.3485 4.9721L25.7107 3.23682C25.9238 2.96565 26.1676 2.72384 26.4353 2.51664ZM50.1482 5.09084C50.1553 5.08853 50.162 5.08573 50.169 5.0828H50.1695C50.981 4.75673 51.8893 4.86653 52.6031 5.37668L52.643 5.40504C52.7583 5.48738 52.8347 5.60995 52.8582 5.75013C52.8817 5.88966 52.8497 6.03113 52.7677 6.14667C52.7217 6.21242 52.6591 6.2677 52.5885 6.30614C52.4229 6.39653 52.2381 6.42538 52.061 6.39511C51.9424 6.3752 51.8267 6.32834 51.7237 6.25595C51.7222 6.25494 51.7208 6.25352 51.7195 6.25263L50.1139 5.10502L50.1482 5.09084ZM49.7755 5.64211C49.7755 5.63791 49.7755 5.63407 49.7762 5.62935L49.7789 5.57968L51.3604 6.71021L51.3839 6.72679C51.3849 6.72731 51.3858 6.72821 51.3868 6.72873C51.6423 6.9137 51.7703 7.22177 51.7204 7.53457C51.7073 7.61449 51.6756 7.69161 51.629 7.75786C51.5472 7.87393 51.4257 7.95051 51.2861 7.97413C51.1473 7.99789 51.007 7.96571 50.8917 7.88336L50.8518 7.85488C50.1389 7.34523 49.7381 6.51947 49.7755 5.64211ZM52.8243 8.66368C52.8022 8.79902 52.749 8.92911 52.6703 9.04031C52.5326 9.23576 52.3274 9.36496 52.0924 9.40519C51.8577 9.44489 51.6211 9.39051 51.4272 9.25135L51.3693 9.21023C51.0047 8.94992 50.6947 8.63381 50.4475 8.27849C50.4701 8.29548 50.4928 8.31246 50.5161 8.32905L50.5567 8.3579C50.7459 8.49286 50.9681 8.56384 51.1958 8.56384C51.2578 8.56384 51.3204 8.55862 51.383 8.54814C51.6748 8.49848 51.9297 8.33761 52.1006 8.09478C52.1984 7.95716 52.2643 7.79526 52.2912 7.62777C52.3043 7.54784 52.3101 7.4678 52.3095 7.38928C52.7063 7.68548 52.9034 8.17151 52.8243 8.66368ZM54.0462 5.42265L54.1041 5.46377C54.5051 5.75013 54.5997 6.31086 54.3144 6.71403C54.236 6.82562 54.1309 6.91844 54.0115 6.98328C53.6556 7.17685 53.244 7.19485 52.8821 7.0429C52.8004 7.00883 52.7209 6.9658 52.6449 6.91422C52.6632 6.90797 52.6811 6.90146 52.699 6.89379H52.6996C52.755 6.87248 52.8097 6.84745 52.8634 6.81808C53.012 6.73765 53.1418 6.62173 53.2399 6.48359C53.4111 6.24128 53.4777 5.94648 53.429 5.65309C53.3795 5.35972 53.2195 5.10323 52.9781 4.93087L52.9381 4.90202C52.9142 4.88503 52.8907 4.86845 52.8661 4.85235C53.2821 4.9707 53.6816 5.16144 54.0462 5.42265ZM55.3713 9.35833H55.3718C55.3784 9.35744 55.3859 9.35694 55.3934 9.35694C55.578 9.35694 55.7284 9.50784 55.7284 9.69386C55.7284 9.70853 55.7274 9.72321 55.7251 9.73687V9.73739C55.7039 9.90297 55.5628 10.0308 55.3934 10.0308C55.208 10.0308 55.0584 9.87935 55.0584 9.69386C55.0584 9.51549 55.1963 9.3697 55.3713 9.35833ZM57.1547 11.4291C57.2987 11.4665 57.4055 11.598 57.4055 11.7547V11.7566C57.4046 11.9411 57.2544 12.0916 57.07 12.0916C56.988 12.0916 56.9127 12.0614 56.8548 12.0121H56.8544C56.854 12.0117 56.854 12.0112 56.8536 12.0107C56.8178 11.9809 56.7891 11.943 56.7693 11.9009C56.7689 11.9005 56.7689 11.8995 56.7683 11.899C56.7468 11.8554 56.735 11.8063 56.735 11.7547C56.735 11.5687 56.8854 11.4178 57.07 11.4178C57.0996 11.4178 57.1279 11.4216 57.1547 11.4291ZM58.6952 13.6244C58.8467 13.657 58.9605 13.7923 58.9605 13.9542C58.9605 13.9825 58.9568 14.0096 58.9497 14.036C58.9135 14.1822 58.7818 14.2911 58.6251 14.2911C58.4405 14.2911 58.2901 14.1397 58.2901 13.9542C58.2901 13.7682 58.4405 13.6168 58.6251 13.6168C58.649 13.6168 58.6727 13.6196 58.6952 13.6244ZM12.1784 15.6673C12.3219 15.3966 12.4705 15.1288 12.624 14.8637C12.6654 14.8693 12.7082 14.8727 12.7515 14.8727C13.2555 14.8727 13.6648 14.461 13.6648 13.9542C13.6648 13.7631 13.6065 13.586 13.5072 13.4389H13.5067V13.4384C13.6859 13.1681 13.8695 12.9018 14.0587 12.6391C14.1378 12.6618 14.221 12.6737 14.3062 12.6737C14.8101 12.6737 15.2204 12.2616 15.2204 11.7547C15.2204 11.5848 15.1738 11.4253 15.0934 11.2881V11.2877C15.2924 11.044 15.4947 10.8044 15.7023 10.5684H15.7028C15.7908 10.5972 15.8853 10.6128 15.9832 10.6128C16.4871 10.6128 16.897 10.2007 16.897 9.69386C16.897 9.57511 16.8744 9.46099 16.833 9.35694C17.199 8.98732 17.5759 8.62857 17.9637 8.28132C17.95 8.43746 17.9558 8.59639 17.9811 8.75688C18.0173 8.97927 18.1044 9.19364 18.2343 9.37723C18.462 9.69947 18.8003 9.91293 19.188 9.97868C19.2708 9.99286 19.3537 9.99949 19.436 9.99949C19.7381 9.99949 20.0326 9.90578 20.2844 9.72654L20.3423 9.68492C21.5798 8.80041 22.2709 7.36184 22.191 5.83719L22.1783 5.60432C22.1783 5.59821 22.1783 5.59245 22.1779 5.58634L22.1571 5.19541C22.87 4.7714 23.6035 4.37958 24.3564 4.02237H24.3568L23.5288 5.07756C23.4606 5.16477 23.4475 5.28299 23.4949 5.38334C23.543 5.48368 23.6433 5.54802 23.7538 5.54892L27.0183 5.57829H27.0604C28.5091 5.57829 29.9056 4.89869 30.804 3.75401L32.4348 1.67567C33.2686 1.57353 34.1145 1.50957 34.9704 1.48685C34.9964 1.52042 35.0247 1.55119 35.0547 1.58107L31.7651 4.88925C31.3893 5.26792 31.2129 5.78931 31.2824 6.3198C31.3521 6.85078 31.6559 7.30885 32.1172 7.57619C32.3802 7.72901 32.6714 7.80611 32.9642 7.80611C33.1843 7.80611 33.4051 7.76258 33.6157 7.67463C33.789 7.60313 33.9451 7.5052 34.0816 7.38648C34.1399 7.55819 34.2275 7.72096 34.3409 7.87008C34.6651 8.29498 35.156 8.53831 35.6885 8.53831C36.2202 8.53831 36.7115 8.29498 37.0357 7.87008C37.1495 7.72096 37.2365 7.5578 37.2954 7.38648C37.4315 7.5052 37.5882 7.60313 37.7607 7.67463C37.9711 7.76258 38.1923 7.80611 38.412 7.80611C38.7048 7.80611 38.9959 7.72901 39.2596 7.57619C39.7207 7.30885 40.0245 6.85078 40.0942 6.3198C40.1633 5.78931 39.9879 5.26792 39.6115 4.88925L36.3215 1.58107C36.3521 1.55119 36.3802 1.52042 36.4056 1.48685C37.2617 1.50957 38.1076 1.57353 38.9418 1.67567L40.5729 3.75401C41.471 4.89869 42.8675 5.57829 44.3158 5.57829H44.3583L47.6232 5.54892C47.7335 5.54802 47.8336 5.48368 47.8817 5.38334C47.9293 5.28299 47.916 5.16477 47.8474 5.07756L47.0198 4.02237C47.7724 4.37958 48.5066 4.77103 49.2189 5.19501L49.1987 5.58634L49.1856 5.83719C49.1055 7.36132 49.7968 8.80041 51.0339 9.68492L51.0921 9.72602C51.3439 9.90578 51.6384 9.99949 51.9405 9.99949C52.0229 9.99949 52.1058 9.99286 52.189 9.97868C52.5763 9.91293 52.9146 9.69947 53.1418 9.37723C53.2717 9.19364 53.3593 8.97927 53.3951 8.75688C53.4209 8.59639 53.4265 8.43694 53.4124 8.2808C53.8 8.62857 54.1771 8.98732 54.5431 9.35694C54.5017 9.46099 54.4793 9.57511 54.4793 9.69386C54.4793 10.2007 54.8894 10.6128 55.3934 10.6128C55.4914 10.6128 55.5855 10.5972 55.6739 10.5684C55.8814 10.8044 56.0847 11.0443 56.2838 11.2881C56.2033 11.4253 56.1567 11.5848 56.1567 11.7547C56.1567 12.2616 56.566 12.6737 57.07 12.6737C57.156 12.6737 57.2394 12.6618 57.3181 12.6391C57.5066 12.9018 57.6905 13.1686 57.8695 13.4384C57.7696 13.5856 57.7114 13.7631 57.7114 13.9542C57.7114 14.461 58.1213 14.8727 58.6251 14.8727C58.6684 14.8727 58.7102 14.8693 58.7522 14.8637C58.9056 15.1288 59.0544 15.3966 59.1982 15.6673C59.2217 15.7112 59.2454 15.7552 59.2683 15.7993H59.9309C59.9082 15.7552 59.8857 15.7112 59.863 15.6673C59.6768 15.3052 59.482 14.9475 59.2791 14.595C59.4402 14.4293 59.5388 14.2035 59.5388 13.9542C59.5388 13.4474 59.1291 13.0352 58.6251 13.0352C58.5262 13.0352 58.4318 13.0508 58.3427 13.0802C58.1687 12.817 57.9894 12.5572 57.805 12.3007C57.9174 12.1474 57.9837 11.9586 57.9837 11.7547C57.9837 11.2478 57.574 10.8357 57.07 10.8357C56.9508 10.8357 56.8369 10.8588 56.7331 10.9006C56.5425 10.6677 56.3477 10.4378 56.1486 10.2101C56.2489 10.0629 56.3071 9.88549 56.3071 9.69386C56.3071 9.18699 55.897 8.77488 55.3934 8.77488C55.2236 8.77488 55.0646 8.82174 54.9285 8.90306H54.9281C54.5163 8.48852 54.0935 8.09006 53.6594 7.70629C53.8745 7.67373 54.0868 7.60415 54.2868 7.49576C54.4834 7.38839 54.6566 7.23455 54.7864 7.05095C55.2557 6.38707 55.1004 5.46185 54.4391 4.98908L54.3819 4.94798C53.1437 4.06347 51.5662 3.87989 50.1605 4.45773L49.9403 4.54811C49.9366 4.54953 49.9329 4.55092 49.9291 4.55233L49.5554 4.70617C48.508 4.08147 47.4168 3.52829 46.2864 3.0471C46.27 3.03995 46.2536 3.0328 46.2378 3.02629L46.12 2.87628C45.1892 1.68984 43.7367 1.00898 42.2353 1.0543L39.3578 1.14048C38.4474 1.01702 37.5278 0.94029 36.6014 0.910542C36.5972 0.407906 36.1892 0 35.6885 0C35.1874 0 34.7789 0.407906 34.7752 0.910542H34.7748C33.8481 0.94029 32.9292 1.01702 32.0188 1.14048H32.0182L29.1419 1.0543C27.6395 1.00847 26.1874 1.68984 25.2566 2.87628L25.1384 3.02666C25.1226 3.0328 25.106 3.03995 25.0899 3.0471C23.9583 3.52829 22.8681 4.08147 21.8208 4.70617L21.4471 4.55233C21.4433 4.55092 21.4402 4.54953 21.4362 4.54811L21.2157 4.45773C19.8106 3.87989 18.2324 4.06347 16.9953 4.94798L16.937 4.9896C16.2763 5.46185 16.1206 6.38707 16.5902 7.05095C16.72 7.23455 16.8927 7.38839 17.0898 7.49576C17.2899 7.60415 17.502 7.67411 17.7176 7.70629C17.2833 8.08967 16.8607 8.48814 16.4481 8.90306H16.4476C16.3111 8.82174 16.1526 8.77488 15.9832 8.77488C15.4792 8.77488 15.0698 9.18699 15.0698 9.69386C15.0698 9.88549 15.1277 10.0629 15.228 10.2101C15.0284 10.4378 14.8341 10.6677 14.643 10.9006C14.5387 10.8588 14.4252 10.8357 14.3062 10.8357C13.8028 10.8357 13.3923 11.2478 13.3923 11.7547C13.3923 11.9586 13.4592 12.147 13.5717 12.3004V12.3007H13.5712C13.3867 12.5572 13.2079 12.817 13.0333 13.0802C12.945 13.0508 12.8499 13.0352 12.7515 13.0352C12.2475 13.0352 11.8377 13.4474 11.8377 13.9542C11.8377 14.2035 11.9365 14.4293 12.0969 14.595C11.8942 14.9475 11.6993 15.3052 11.513 15.6673C11.49 15.7112 11.4674 15.7552 11.4453 15.7993H12.1082C12.1314 15.7552 12.1548 15.7112 12.1784 15.6673Z" fill="#F7F5F3"/>
<path d="M58.9627 42.3731C58.9627 42.5321 58.8489 42.6656 58.6972 42.6978C58.6747 42.7024 58.6512 42.7051 58.6271 42.7051C58.4427 42.7051 58.292 42.5558 58.292 42.3731C58.292 42.1897 58.4427 42.0405 58.6271 42.0405C58.7833 42.0405 58.9155 42.1477 58.9519 42.2918C58.959 42.318 58.9627 42.345 58.9627 42.3731ZM57.4074 44.5409C57.4074 44.6958 57.3005 44.8259 57.1563 44.8623C57.1292 44.8698 57.1011 44.8735 57.0718 44.8735C56.8874 44.8735 56.7368 44.7247 56.7368 44.5409C56.7368 44.49 56.7486 44.4415 56.7703 44.3987C56.7707 44.3981 56.7707 44.3973 56.7713 44.3968C56.7909 44.3553 56.8196 44.3181 56.8554 44.2889C56.856 44.2885 56.856 44.2879 56.8562 44.2877H56.8568C56.9147 44.2386 56.99 44.2087 57.0718 44.2087C57.2564 44.2087 57.4064 44.3571 57.4074 44.539V44.5409ZM55.7302 46.573C55.7302 46.7559 55.5798 46.9052 55.3952 46.9052C55.3877 46.9052 55.3802 46.9046 55.3729 46.9037C55.1977 46.8931 55.0602 46.7489 55.0602 46.573C55.0602 46.3896 55.2098 46.2404 55.3952 46.2404C55.5646 46.2404 55.7052 46.3663 55.7269 46.5295V46.5302C55.7292 46.5441 55.7302 46.5586 55.7302 46.573ZM51.7209 49.965C51.7213 49.9646 51.7217 49.9646 51.7224 49.964C51.8268 49.8908 51.9429 49.8441 52.063 49.8247C52.2399 49.7948 52.4245 49.8237 52.5895 49.9125C52.6606 49.9505 52.7233 50.0045 52.7693 50.07C52.8513 50.1842 52.8831 50.3228 52.8598 50.4609C52.8361 50.5991 52.7599 50.7199 52.6446 50.8012L52.6047 50.829C51.8907 51.3315 50.9824 51.4398 50.1708 51.1182H50.1704C50.1631 51.1159 50.1567 51.1132 50.1496 51.1103L50.1153 51.0968L51.7209 49.965ZM50.8532 48.3864L50.8931 48.3579C50.9838 48.2941 51.0898 48.2608 51.1986 48.2608C51.2277 48.2608 51.2579 48.2627 51.2874 48.2679C51.4273 48.2912 51.5486 48.3668 51.6304 48.4816C51.677 48.5464 51.7086 48.6225 51.7217 48.7013C51.7713 49.0092 51.6441 49.3129 51.3892 49.4952C51.3877 49.4961 51.3867 49.4971 51.3852 49.4981L49.7802 50.6284L49.7769 50.5669C49.7392 49.7019 50.1402 48.8878 50.8532 48.3864ZM51.4292 47.0087C51.5848 46.8983 51.7656 46.8455 51.944 46.8455C52.2234 46.8455 52.4983 46.9752 52.6719 47.2172C52.7505 47.327 52.8038 47.4557 52.8252 47.5883C52.9049 48.0737 52.7077 48.5525 52.311 48.845C52.3115 48.767 52.3058 48.6886 52.2925 48.6098C52.2659 48.4448 52.1999 48.2851 52.1019 48.149C51.9313 47.9101 51.6762 47.7515 51.3844 47.7028C51.0927 47.6534 50.7991 47.7201 50.5581 47.8899L50.5175 47.9184C50.494 47.9346 50.4715 47.9521 50.4484 47.9687C50.6958 47.6184 51.0061 47.3064 51.3707 47.0492L51.4292 47.0087ZM54.3162 49.5102C54.6013 49.9077 54.5068 50.4604 54.1058 50.7432L54.048 50.7837C53.6832 51.0409 53.2841 51.2288 52.8685 51.3454C52.8927 51.3296 52.9162 51.3132 52.9397 51.297L52.9803 51.2681C53.221 51.0982 53.3811 50.8459 53.4306 50.5565C53.4795 50.2677 53.4127 49.9767 53.2414 49.7374C53.143 49.601 53.0136 49.4869 52.865 49.4075C52.8113 49.379 52.7566 49.3545 52.7012 49.3329H52.7006C52.6827 49.3258 52.6648 49.3194 52.6465 49.3137C52.7222 49.2624 52.8013 49.22 52.8831 49.1863C53.245 49.0366 53.657 49.0541 54.013 49.2447C54.1327 49.3085 54.2376 49.4004 54.3162 49.5102ZM44.9425 53.6477C44.1821 54.2309 43.2297 54.5466 42.2527 54.5167L42.0382 54.5107H42.0375L39.7077 54.4416L41.0272 52.7836C41.8165 51.7924 43.0439 51.2036 44.3168 51.2036H44.3538L47.0286 51.228L45.6669 52.9386C45.4542 53.2064 45.2103 53.4438 44.9425 53.6477ZM31.2467 45.8439L32.9657 46.6938C33.0175 46.7195 33.0683 46.7462 33.1187 46.7732C33.3418 46.8944 33.5511 47.0326 33.7459 47.186C34.4617 47.7482 34.9769 48.5128 35.2273 49.3778V49.3786C35.296 49.6148 35.3444 49.8582 35.3719 50.1072C35.3898 50.2673 35.3992 50.4293 35.3992 50.5924V54.3647C35.3917 54.3666 35.384 54.3689 35.3771 54.3716H35.3765C35.359 54.3782 35.3422 54.3853 35.3253 54.3924L34.3666 53.7891C33.0885 52.9856 32.3256 51.6109 32.3256 50.1106V49.6393C32.3256 49.4929 32.3209 49.3468 32.3121 49.2015C32.2955 48.9354 32.2649 48.671 32.2189 48.4086V48.4084C32.1454 47.9822 32.0324 47.564 31.8832 47.1576C31.7372 46.7582 31.5549 46.3715 31.3385 46.0015L31.2467 45.8439ZM39.4917 47.1605C39.3431 47.5652 39.231 47.9839 39.1571 48.4086V48.4097C39.1115 48.6714 39.0801 48.936 39.0645 49.2017C39.0556 49.3474 39.0508 49.4934 39.0508 49.6393V50.1106C39.0508 51.6109 38.2875 52.9856 37.0098 53.7891L36.0509 54.3918C36.0339 54.3847 36.017 54.3782 35.9999 54.3716C35.9922 54.3689 35.9849 54.3666 35.9775 54.3643V50.5924C35.9775 50.4293 35.9868 50.2673 36.0047 50.1072C36.0316 49.8586 36.0805 49.6148 36.1491 49.379V49.3778C36.3995 48.5128 36.9149 47.7482 37.6305 47.1856C37.6312 47.1856 37.6312 47.1856 37.6316 47.185C37.8259 47.032 38.0349 46.8944 38.2579 46.7732C38.3077 46.7462 38.3591 46.7195 38.4103 46.6938L40.1299 45.8439L40.0375 46.0015C39.8211 46.372 39.6386 46.7601 39.4917 47.1605ZM41.2137 46.8572L41.1294 46.9588C40.4015 47.8382 40.0005 48.9491 40.0005 50.0862V50.1214C40.0005 51.6566 39.2037 53.0357 37.9379 53.8161C39.0085 52.8883 39.6297 51.5502 39.6297 50.1106V49.6393C39.6297 48.872 39.7637 48.112 40.0215 47.3937H40.0222C40.2404 47.2075 40.4993 47.0667 40.7754 46.9858L41.2137 46.8572ZM36.7676 45.081C37.3242 45.3078 37.6998 45.8144 37.7581 46.3986C37.103 46.7994 36.5501 47.3461 36.1431 47.9982C35.9577 48.2957 35.8052 48.6098 35.6884 48.936C35.5715 48.6098 35.4194 48.2957 35.2339 47.9982C34.8263 47.3461 34.2734 46.7987 33.6183 46.3986C33.6762 45.8144 34.0518 45.3078 34.609 45.081L35.6884 44.6421L36.7676 45.081ZM30.2472 46.9588L30.1634 46.8572L30.6016 46.9858C30.8767 47.0667 31.1366 47.2075 31.3545 47.3937C31.3545 47.3941 31.3549 47.3945 31.3549 47.3945C31.6133 48.1126 31.7474 48.8726 31.7474 49.6393V50.1106C31.7474 51.5502 32.3681 52.8883 33.4385 53.8161C32.1723 53.0357 31.3757 51.6566 31.3757 50.1214V50.0862C31.3757 48.9491 30.9751 47.8382 30.2472 46.9588ZM35.6884 55.5557C35.5105 55.5557 35.3646 55.4181 35.3538 55.2445C35.353 55.2376 35.353 55.231 35.353 55.2235C35.353 55.2013 35.3553 55.1796 35.3596 55.1586C35.363 55.1395 35.3686 55.1214 35.3765 55.1038C35.3846 55.0803 35.3963 55.0584 35.41 55.0383C35.4104 55.0402 35.4108 55.042 35.4112 55.0435C35.4108 55.0416 35.4108 55.0402 35.4104 55.0383V55.0379C35.4458 54.9857 35.4955 54.9441 35.5544 54.9185H35.5548C35.5694 54.9123 35.5831 54.9073 35.5981 54.9036H35.5987C35.616 54.8984 35.6331 54.8946 35.6522 54.8928H35.6532C35.6645 54.8915 35.6757 54.8909 35.688 54.8909H35.6884C35.7003 54.8909 35.7123 54.8915 35.7238 54.8928C35.7427 54.8946 35.76 54.8984 35.7779 54.9036H35.7783C35.7935 54.9073 35.8081 54.9123 35.8216 54.9185H35.8222C35.8815 54.9441 35.93 54.9853 35.966 55.0374V55.0383C35.9804 55.0584 35.9914 55.0803 36.0006 55.1031C36.008 55.1208 36.0132 55.1395 36.017 55.1586C36.0212 55.1796 36.0237 55.2013 36.0237 55.2235C36.0237 55.231 36.0237 55.2376 36.0226 55.2445C36.0114 55.4181 35.8655 55.5557 35.6884 55.5557ZM29.3385 54.5107L29.1233 54.5167C28.1469 54.5466 27.1941 54.2309 26.4331 53.6477C26.1657 53.4434 25.9224 53.206 25.7098 52.9386L24.3474 51.228L27.0226 51.2036C28.3088 51.1905 29.552 51.7826 30.3492 52.7836L31.6683 54.4416L29.3385 54.5107ZM21.2274 51.1103C21.2241 51.1117 21.2204 51.113 21.2166 51.1144C21.2129 51.1159 21.2096 51.1174 21.2062 51.1182H21.2058C20.3935 51.4398 19.4854 51.3315 18.7715 50.829L18.7315 50.8012C18.6166 50.7199 18.5399 50.5991 18.5168 50.4609C18.4933 50.3228 18.5248 50.1842 18.6067 50.07C18.6538 50.0045 18.7159 49.9505 18.787 49.9125C18.9108 49.8461 19.0448 49.8135 19.179 49.8135C19.2241 49.8135 19.2693 49.8168 19.3136 49.8247C19.4303 49.8439 19.5428 49.8881 19.6448 49.9576C19.6468 49.9584 19.6486 49.9594 19.6506 49.9609C19.6523 49.9621 19.6542 49.9636 19.6561 49.965L21.2614 51.0968L21.2274 51.1103ZM19.9912 49.4981C19.9893 49.4967 19.9879 49.4959 19.986 49.4942C19.7314 49.3119 19.6048 49.0082 19.6547 48.7013C19.6674 48.6225 19.6994 48.5464 19.746 48.4816C19.8279 48.3668 19.9493 48.2912 20.0886 48.2679C20.1188 48.2627 20.1484 48.2608 20.1781 48.2608C20.2868 48.2608 20.393 48.2941 20.4829 48.3579L20.5229 48.3864C21.2428 48.893 21.6453 49.7179 21.5987 50.592L21.5968 50.6288L19.9912 49.4981ZM18.5512 47.5883C18.5729 47.4557 18.6256 47.327 18.7046 47.2172C18.8777 46.9752 19.1531 46.8455 19.4326 46.8455C19.6109 46.8455 19.7917 46.8983 19.9479 47.0087L20.0053 47.0492C20.3705 47.3068 20.6806 47.6184 20.9276 47.9687C20.9051 47.9521 20.882 47.9346 20.8585 47.9184L20.8185 47.8899C20.5775 47.7201 20.284 47.6534 19.9921 47.7028C19.7008 47.7515 19.4458 47.9101 19.274 48.149C19.1766 48.2851 19.1107 48.4448 19.0834 48.6098C19.0707 48.6886 19.0646 48.7676 19.0651 48.845C18.6684 48.5525 18.4717 48.0737 18.5512 47.5883ZM17.3286 50.7837L17.2703 50.7432C16.8699 50.4604 16.7757 49.9077 17.0599 49.5106C17.139 49.4004 17.2439 49.3085 17.3635 49.2447C17.561 49.1389 17.7766 49.0865 17.9908 49.0865C18.1621 49.0865 18.3324 49.1202 18.4933 49.1863C18.4938 49.1863 18.4938 49.1869 18.4943 49.1869C18.5545 49.2364 18.6143 49.2844 18.6755 49.3329C18.6199 49.3545 18.5649 49.379 18.5117 49.4075C18.3634 49.4869 18.233 49.601 18.1352 49.7374C17.9639 49.9767 17.8966 50.2677 17.946 50.5565C17.9955 50.8459 18.1555 51.0982 18.3964 51.2681L18.4364 51.297C18.4599 51.3132 18.4839 51.3296 18.5079 51.3454C18.0924 51.2288 17.6933 51.0409 17.3286 50.7837ZM16.004 46.9037C15.9964 46.9046 15.9889 46.9052 15.9814 46.9052C15.7969 46.9052 15.6463 46.7559 15.6463 46.573C15.6463 46.5586 15.6472 46.5441 15.6495 46.5295C15.6707 46.3663 15.8115 46.2404 15.9814 46.2404C16.1663 46.2404 16.3164 46.3896 16.3164 46.573C16.3164 46.7489 16.1786 46.8931 16.004 46.9037ZM14.3041 44.8735C14.2754 44.8735 14.2467 44.8698 14.22 44.8623C14.0755 44.8259 13.9691 44.6958 13.9691 44.5409V44.5395C13.9701 44.3571 14.1197 44.2087 14.3041 44.2087C14.3865 44.2087 14.4623 44.2386 14.5202 44.2877C14.5479 44.3243 14.5767 44.3613 14.6063 44.3977C14.628 44.4411 14.6393 44.4896 14.6393 44.5409C14.6393 44.7247 14.4896 44.8735 14.3041 44.8735ZM12.6788 42.6978C12.5282 42.6656 12.4143 42.5321 12.4143 42.3731C12.4143 42.345 12.4181 42.318 12.4247 42.2924C12.4609 42.1477 12.5922 42.0405 12.7494 42.0405C12.9338 42.0405 13.0844 42.1897 13.0844 42.3731C13.0844 42.5558 12.9338 42.7051 12.7494 42.7051C12.7254 42.7051 12.7014 42.7024 12.6788 42.6978ZM59.0526 40.9534C58.9552 41.1293 58.856 41.3033 58.7542 41.4765C58.7124 41.4704 58.6704 41.4671 58.6271 41.4671C58.1233 41.4671 57.7133 41.8733 57.7133 42.3731C57.7133 42.561 57.7716 42.7365 57.8715 42.8816C57.6921 43.1479 57.5086 43.4104 57.3194 43.6695C57.2408 43.6474 57.1579 43.6354 57.0718 43.6354C56.5678 43.6354 56.1585 44.0418 56.1585 44.5409C56.1585 44.7085 56.2051 44.866 56.2854 45.001C56.0865 45.2417 55.8832 45.4776 55.6757 45.7109C55.5873 45.6824 55.4932 45.667 55.3952 45.667C54.8912 45.667 54.4808 46.0734 54.4808 46.573C54.4808 46.69 54.5035 46.8021 54.5449 46.9052C54.1787 47.2696 53.8018 47.6232 53.4139 47.9656C53.4281 47.8116 53.4225 47.6544 53.3967 47.4966C53.3609 47.2775 53.2733 47.0657 53.1434 46.8846C52.6738 46.2298 51.7542 46.0753 51.0935 46.5414L51.0352 46.5819C49.7981 47.4542 49.1068 48.872 49.1868 50.375L49.1999 50.6224L49.22 51.0082C48.5077 51.4261 47.774 51.8115 47.0211 52.1632L47.8485 51.1238C47.9172 51.0379 47.9303 50.9209 47.8826 50.8226C47.8348 50.7236 47.7345 50.6606 47.6244 50.6596L44.359 50.6303C42.8947 50.6172 41.48 51.2895 40.5732 52.4283L38.9417 54.4776C38.5253 54.5279 38.1069 54.5691 37.6851 54.5999C38.4494 54.2537 39.1078 53.7224 39.6132 53.0418C40.2446 52.1888 40.5794 51.1795 40.5794 50.1214V50.0862C40.5794 49.0815 40.9336 48.0995 41.577 47.3226L42.2583 46.4992C42.3393 46.4019 42.3463 46.2639 42.2758 46.1589C42.2061 46.0539 42.0748 46.0067 41.9528 46.0427L40.6113 46.4358C40.5468 46.4545 40.4829 46.4759 40.4198 46.5002C40.4579 46.4293 40.4974 46.3589 40.5378 46.2894L41.1144 45.3041C41.1789 45.1949 41.1629 45.0558 41.0753 44.964C40.9877 44.8717 40.8493 44.8475 40.7351 44.9039L38.2979 46.1094C38.1516 45.4146 37.6692 44.8278 36.9873 44.5507L35.7981 44.0669C35.7275 44.0384 35.6489 44.0384 35.5783 44.0669L34.3893 44.5507C33.7074 44.8278 33.225 45.4146 33.0787 46.1094L30.6415 44.9039C30.5271 44.8475 30.3887 44.8717 30.3013 44.964C30.2137 45.0558 30.1977 45.1949 30.2622 45.3041L30.8382 46.2894C30.8788 46.3589 30.9181 46.4293 30.9568 46.5002C30.8938 46.4759 30.8297 46.4545 30.7654 46.4358L29.4236 46.0427C29.3016 46.0067 29.1703 46.0539 29.1004 46.1589C29.0301 46.2639 29.0372 46.4019 29.1183 46.4992L29.7996 47.3226C30.443 48.0995 30.7972 49.0815 30.7972 50.0862V50.1214C30.7972 51.1795 31.1314 52.1888 31.7638 53.0418C32.2692 53.7224 32.9266 54.2533 33.6909 54.5999C33.2691 54.5691 32.8505 54.5279 32.4345 54.4776L30.8034 52.4283C29.8962 51.2895 28.4815 50.6191 27.0176 50.6303L23.7522 50.6596C23.6419 50.6606 23.5419 50.7236 23.4938 50.8226C23.4463 50.9209 23.4594 51.0379 23.5277 51.1238L24.3555 52.1636H24.3549C23.6024 51.8115 22.8685 51.4257 22.156 51.0076L22.1766 50.6224C22.177 50.6168 22.177 50.6103 22.1776 50.6041L22.1897 50.375C22.2698 48.872 21.5785 47.4542 20.3408 46.5819L20.2829 46.5414C19.6222 46.0753 18.7028 46.2298 18.2327 46.8846C18.1028 47.0657 18.0157 47.2775 17.9795 47.4966C17.954 47.6544 17.9484 47.8111 17.962 47.965C17.5742 47.6232 17.1973 47.2696 16.8313 46.9052C16.8727 46.8021 16.8953 46.69 16.8953 46.573C16.8953 46.0734 16.4853 45.667 15.9814 45.667C15.8839 45.667 15.7893 45.6824 15.7013 45.7109H15.7008C15.4929 45.4776 15.2905 45.2421 15.0914 45.0014V45.001C15.1719 44.866 15.2185 44.7085 15.2185 44.5409C15.2185 44.0418 14.8082 43.6354 14.3041 43.6354C14.2191 43.6354 14.1357 43.6474 14.0571 43.6695C13.8675 43.4102 13.6839 43.1479 13.5047 42.8816C13.5052 42.8816 13.5052 42.8809 13.5052 42.8809C13.6044 42.7365 13.6627 42.561 13.6627 42.3731C13.6627 41.8733 13.2534 41.4671 12.7494 41.4671C12.7061 41.4671 12.6633 41.4704 12.6219 41.4765C12.5202 41.3033 12.4209 41.1293 12.3239 40.9534H11.6533C11.7959 41.2189 11.9433 41.481 12.0948 41.7413C11.9343 41.9047 11.8355 42.1276 11.8355 42.3731C11.8355 42.8726 12.2453 43.2784 12.7494 43.2784C12.8478 43.2784 12.9427 43.263 13.0312 43.2348C13.2058 43.494 13.3852 43.7505 13.5692 44.0031C13.5692 44.0031 13.5692 44.0035 13.5697 44.0035C13.4572 44.1542 13.3903 44.3399 13.3903 44.5409C13.3903 45.0405 13.8006 45.4473 14.3041 45.4473C14.4232 45.4473 14.5366 45.4246 14.6411 45.3835C14.8322 45.613 15.0265 45.8396 15.2261 46.0635C15.1263 46.2092 15.0679 46.3846 15.0679 46.573C15.0679 47.0721 15.4774 47.4785 15.9814 47.4785C16.1508 47.4785 16.3093 47.4328 16.4458 47.3521H16.4463C16.859 47.7613 17.2816 48.1544 17.7159 48.5325C17.5004 48.5641 17.2877 48.6335 17.0881 48.74C16.8909 48.8454 16.7188 48.9969 16.5884 49.178C16.1188 49.8335 16.2746 50.745 16.9352 51.2107L16.9935 51.2512C17.754 51.7872 18.6439 52.0624 19.5423 52.0624C20.1056 52.0624 20.6731 51.9543 21.2141 51.7354L21.4457 51.6412L21.8195 51.4901C22.867 52.1054 23.9572 52.6507 25.089 53.1253C25.105 53.1322 25.1211 53.1386 25.1365 53.1453L25.2557 53.2941C26.1574 54.4273 27.5487 55.0919 29.0001 55.0919C29.0471 55.0919 29.0942 55.0915 29.1412 55.0903L32.0185 55.0052H32.0189C32.9289 55.1266 33.848 55.2021 34.7747 55.2318H34.7751C34.7788 55.7274 35.1873 56.1291 35.6884 56.1291C36.1891 56.1291 36.5972 55.7274 36.6013 55.2318C37.528 55.2021 38.4475 55.1266 39.3575 55.0052L42.2358 55.0903C42.2829 55.0915 42.3293 55.0919 42.3759 55.0919C43.8277 55.0919 45.2193 54.4267 46.1209 53.2941L46.2389 53.1453C46.2549 53.1393 46.271 53.1322 46.2874 53.1253C47.4178 52.6507 48.5092 52.1054 49.5567 51.4901L49.9303 51.6412L50.1619 51.7354C50.7033 51.9543 51.2706 52.0624 51.8337 52.0624C52.7326 52.0624 53.6224 51.7872 54.383 51.2512L54.4413 51.2107C55.102 50.745 55.2574 49.8335 54.7882 49.178C54.6583 48.9969 54.485 48.8454 54.2883 48.74C54.0884 48.6335 53.8761 48.5641 53.6612 48.5325C54.0948 48.1542 54.5181 47.7608 54.9299 47.3521H54.9303C55.0662 47.4328 55.2254 47.4785 55.3952 47.4785C55.8988 47.4785 56.3091 47.0721 56.3091 46.573C56.3091 46.3846 56.2507 46.2092 56.1499 46.0635C56.3495 45.8396 56.5443 45.613 56.7349 45.3835C56.8389 45.4246 56.9528 45.4473 57.0718 45.4473C57.576 45.4473 57.9857 45.0405 57.9857 44.5409C57.9857 44.3399 57.9196 44.1536 57.807 44.0031C57.9914 43.7505 58.1703 43.494 58.3447 43.2348C58.4338 43.263 58.5284 43.2784 58.6271 43.2784C59.1311 43.2784 59.541 42.8726 59.541 42.3731C59.541 42.1276 59.4422 41.9047 59.2813 41.7413C59.4328 41.481 59.5801 41.2189 59.7227 40.9534H59.0526Z" fill="#F7F5F3"/>
<path d="M38.0814 57.4079C37.9128 57.4079 37.7757 57.2539 37.7757 57.0651C37.7757 56.8758 37.9128 56.7221 38.0814 56.7221C38.2499 56.7221 38.3867 56.8758 38.3867 57.0651C38.3867 57.2539 38.2499 57.4079 38.0814 57.4079ZM38.0814 56.129C37.6228 56.129 37.249 56.5492 37.249 57.0651C37.249 57.5809 37.6228 58 38.0814 58C38.54 58 38.9138 57.5809 38.9138 57.0651C38.9138 56.5492 38.54 56.129 38.0814 56.129Z" fill="#F7F5F3"/>
<path d="M33.3995 57.4079C33.2099 57.4079 33.0555 57.2539 33.0555 57.0651C33.0555 56.8758 33.2099 56.7221 33.3995 56.7221C33.5887 56.7221 33.7431 56.8758 33.7431 57.0651C33.7431 57.2539 33.5887 57.4079 33.3995 57.4079ZM33.3995 56.129C32.883 56.129 32.4629 56.5492 32.4629 57.0651C32.4629 57.5809 32.883 58 33.3995 58C33.9162 58 34.3357 57.5809 34.3357 57.0651C34.3357 56.5492 33.9162 56.129 33.3995 56.129Z" fill="#F7F5F3"/>
<path d="M26.4587 20.3935C26.4823 20.3955 26.506 20.3901 26.5264 20.3779L26.7902 20.2183C26.8302 20.1942 26.8508 20.1477 26.8418 20.1021C26.8329 20.0562 26.7963 20.021 26.7501 20.0137C26.0353 19.9002 25.3263 19.9236 24.6427 20.083C23.9641 20.2414 23.3507 20.4649 22.8196 20.7471C22.2861 21.0307 21.7234 21.4806 21.147 22.0847C20.5774 22.6815 20.0972 23.2262 19.72 23.7035C19.3426 24.1812 18.8914 24.8643 18.3793 25.7339C17.869 26.5999 17.4766 27.2912 17.2126 27.7878C16.9472 28.2878 16.5687 29.0168 16.0878 29.9548C15.6688 30.7741 15.3716 31.3505 15.2043 31.6684C15.0378 31.9842 14.7665 32.4756 14.3976 33.129C14.0316 33.7774 13.7363 34.2418 13.5199 34.5096C13.301 34.7802 13.0274 35.1025 12.7067 35.4671C12.3952 35.8211 12.095 36.0683 11.8144 36.2015C11.6139 36.2972 11.4083 36.3602 11.2004 36.3901C11.6573 35.7966 12.1159 35.0405 12.5662 34.1381C13.0676 33.1332 13.5177 32.0403 13.9043 30.8899C14.2913 29.7376 14.5757 28.5194 14.7491 27.2689C14.9204 26.0341 14.9348 24.915 14.7919 23.9413C15.2416 23.347 15.6954 22.8229 16.1413 22.3836C16.5951 21.9365 17.0861 21.5373 17.6008 21.197C18.1103 20.86 18.6557 20.6197 19.2218 20.4825C19.7873 20.3455 20.3738 20.3155 20.9651 20.393C20.9903 20.3963 21.0159 20.391 21.0375 20.3779L21.3016 20.2183C21.3415 20.1942 21.3621 20.1474 21.353 20.1017C21.3438 20.0559 21.307 20.0207 21.2606 20.0136C20.59 19.9113 19.9306 19.9155 19.3001 20.026C18.6693 20.1366 18.0652 20.3516 17.5047 20.6646C16.9482 20.9754 16.4195 21.3504 15.9332 21.7789C15.4969 22.1635 15.061 22.6133 14.6353 23.1189C14.3753 22.1117 13.8914 21.3018 13.1949 20.7089C12.4467 20.072 11.4102 19.7491 10.1142 19.7491C10.0526 19.7491 10.0027 19.7989 10.0027 19.8602V20.0277C10.0027 20.089 10.0526 20.1387 10.1142 20.1387C10.5544 20.1387 10.9546 20.2198 11.3038 20.3798C11.6524 20.5396 11.9491 20.7619 12.1854 21.0405C12.4242 21.3222 12.6265 21.6724 12.7867 22.0818C12.9483 22.4952 13.0687 22.9476 13.1446 23.4266C13.2191 23.8989 13.2603 24.4184 13.2669 24.9716C12.7233 25.7948 12.1289 26.8035 11.5001 27.9707C10.8646 29.1503 10.307 30.2084 9.84286 31.115C9.37937 32.0208 8.88915 32.9095 8.38602 33.757C7.88675 34.5977 7.38312 35.259 6.88919 35.7226C6.4944 36.0934 6.10038 36.3157 5.71436 36.3859C6.11286 35.866 6.51912 35.2166 6.92411 34.4516C7.383 33.5847 7.79983 32.6191 8.16301 31.5811C8.52557 30.5446 8.8309 29.4696 9.07073 28.3861C9.31158 27.2978 9.42003 26.2303 9.39327 25.2129C9.36639 24.1933 9.21092 23.2684 8.93118 22.4639C8.64701 21.6469 8.13192 20.9827 7.40008 20.4899C6.66974 19.9984 5.73617 19.7491 4.62531 19.7491C4.3163 19.7491 4.01313 19.7767 3.72525 19.8306C2.55375 20.0425 1.61163 20.651 0.925264 21.6392C0.333716 22.4884 0.0229024 23.4671 0.00123865 24.5475C-0.0205526 25.6154 0.245276 26.5291 0.791205 27.2637C1.42914 28.1246 2.33952 28.5609 3.49714 28.5609C3.55869 28.5609 3.60851 28.5112 3.60851 28.4499V28.2905C3.60851 28.2289 3.55869 28.1795 3.49714 28.1795C3.33695 28.1795 3.1778 28.1689 3.02525 28.1487C2.15819 28.0217 1.48521 27.5541 1.02492 26.7588C0.585653 26.012 0.410175 25.13 0.503713 24.1365C0.591898 23.1017 0.949222 22.2102 1.56575 21.4874C2.3292 20.5924 3.35861 20.1387 4.62531 20.1387C5.2235 20.1387 5.74495 20.2865 6.17479 20.5781C6.60617 20.8708 6.94028 21.2764 7.16802 21.7837C7.40008 22.3011 7.57084 22.9129 7.67557 23.6014C7.7806 24.2926 7.8099 25.0468 7.76262 25.8432C7.71509 26.6434 7.62397 27.4731 7.4917 28.309C7.35967 29.1436 7.1749 29.9818 6.94246 30.8003C6.70938 31.6214 6.45451 32.4035 6.18511 33.1248C5.91636 33.8443 5.6211 34.5054 5.30721 35.0889C4.99501 35.6696 4.68318 36.1431 4.38051 36.497C4.35937 36.5217 4.35007 36.5545 4.35529 36.5865C4.36039 36.6188 4.37949 36.647 4.40727 36.6639C4.76396 36.8807 5.12449 36.9946 5.47874 37.0032C5.49302 37.0034 5.50717 37.0036 5.52132 37.0036C5.86257 37.0036 6.19939 36.9057 6.52295 36.7121C6.8493 36.5169 7.17426 36.2577 7.48877 35.9413C7.80162 35.6267 8.12505 35.2228 8.45026 34.7407C8.77241 34.263 9.08729 33.7633 9.38601 33.2556C9.68421 32.7488 10.0094 32.165 10.3525 31.5206C10.6967 30.8747 11.0233 30.2591 11.3328 29.6742C11.639 29.095 11.9887 28.4501 12.3719 27.7579C12.6681 27.2228 12.9543 26.7265 13.226 26.2773C13.1011 28.0944 12.719 30.0014 12.0884 31.953C11.4081 34.058 10.6617 35.5866 9.86999 36.4963C9.84554 36.5244 9.83686 36.5628 9.84669 36.5984C9.85649 36.6344 9.88377 36.6628 9.91906 36.6745C10.637 36.9113 11.3402 36.8747 12.0096 36.566C12.8787 36.1598 13.791 35.2066 14.7209 33.7333C15.2062 32.9677 15.9321 31.6364 16.8785 29.776C17.3726 28.8017 17.7545 28.0618 18.0136 27.5768C19.1402 25.4626 20.2062 23.8496 21.1819 22.7823C22.7872 21.0311 24.5626 20.227 26.4587 20.3935Z" fill="#F7F5F3"/>
<path d="M22.7702 25.7778H21.5346C21.4859 25.7778 21.442 25.8065 21.4235 25.8503L20.8185 27.2793C20.8034 27.3155 20.8076 27.3565 20.83 27.3889C20.8522 27.4213 20.8897 27.4409 20.9299 27.4409H22.2086C22.2585 27.4409 22.3033 27.4109 22.321 27.3656L22.8826 25.9366C22.8968 25.9006 22.8918 25.8603 22.8693 25.8285C22.8468 25.7967 22.81 25.7778 22.7702 25.7778Z" fill="#F7F5F3"/>
<path d="M34.9856 20.4505C35.0386 20.5374 35.0728 20.7335 34.935 21.1735C34.708 21.8951 34.195 22.7622 33.4101 23.7511C32.455 24.9637 31.3735 25.9796 30.1913 26.7756C30.3867 26.3328 30.5886 25.8948 30.7936 25.4697C31.0495 24.9389 31.3627 24.3392 31.7246 23.6868C32.0856 23.0368 32.4365 22.4678 32.7673 21.9959C33.0957 21.5273 33.4478 21.128 33.814 20.8089C34.1663 20.5018 34.483 20.346 34.755 20.346C34.7789 20.346 34.801 20.348 34.8241 20.3525C34.9015 20.3655 34.9527 20.3966 34.9856 20.4505ZM23.3095 36.6144C23.2042 36.6144 23.1299 36.5888 23.0827 36.5358C23.033 36.4801 23.0045 36.3749 23.0001 36.2321C22.9951 36.0689 23.0157 35.8696 23.0613 35.6398C23.1079 35.4053 23.1894 35.0983 23.3041 34.7268C23.4186 34.3543 23.5551 33.9514 23.7097 33.5294C23.8632 33.1105 24.0562 32.5962 24.283 32.0014L25.5867 28.5965C26.4267 28.5628 27.3309 28.3655 28.2786 28.0092C28.2567 28.0674 28.2338 28.1273 28.2097 28.1882C28.1368 28.3711 28.119 28.4183 28.1133 28.4345L26.4303 32.8484C25.7993 34.0863 25.2171 35.039 24.7002 35.6795C24.1995 36.2999 23.7315 36.6144 23.3095 36.6144ZM36.3063 31.8507H36.1482C36.1055 31.8507 36.0668 31.8755 36.0485 31.9141C35.6817 32.6945 35.3497 33.3616 35.062 33.8963C34.7746 34.4297 34.4783 34.921 34.1815 35.3561C33.8885 35.7854 33.6061 36.108 33.3417 36.3153C33.0884 36.5138 32.8422 36.6144 32.61 36.6144C32.5039 36.6144 32.4292 36.5895 32.3821 36.5385C32.3482 36.5017 32.3074 36.4192 32.3047 36.2338C32.302 36.065 32.3241 35.8654 32.3697 35.6403C32.4165 35.4107 32.5005 35.1037 32.62 34.7276C32.7399 34.3501 32.8766 33.9483 33.0264 33.5329C33.1781 33.1122 33.3683 32.5966 33.5914 32.0014C33.6973 31.7243 33.7859 31.473 33.8548 31.2541C33.9241 31.0339 33.989 30.7841 34.0475 30.5111C34.107 30.2336 34.137 29.986 34.137 29.7748C34.137 29.56 34.1035 29.3426 34.0371 29.1285C33.9682 28.9062 33.8542 28.7195 33.6979 28.574C33.5443 28.431 33.3308 28.3144 33.0634 28.2273C32.8002 28.1418 32.4799 28.0984 32.1114 28.0984C31.4855 28.0984 30.8433 28.3138 30.2026 28.738C29.7539 29.0355 29.3369 29.4076 28.9574 29.8494L29.4614 28.5073C29.5373 28.278 29.683 27.9198 29.8942 27.4425C30.3083 27.1962 30.7224 26.9157 31.1253 26.6089C32.3422 25.6771 33.3914 24.586 34.2435 23.3661C34.9581 22.3462 35.3562 21.5005 35.4265 20.8519C35.4586 20.5392 35.4061 20.304 35.2705 20.1526C35.1539 20.0228 34.9806 19.957 34.755 19.957C34.339 19.957 33.9125 20.0639 33.4873 20.2751C33.0678 20.4835 32.678 20.7564 32.3289 21.0864C31.9834 21.4126 31.6303 21.8126 31.2797 22.2749C30.9305 22.7356 30.6179 23.1946 30.3509 23.639C30.084 24.0833 29.8176 24.5722 29.5592 25.0928C29.3001 25.6139 29.0864 26.063 28.9239 26.4274C28.7665 26.7793 28.6146 27.1411 28.4721 27.5032C27.5045 27.8992 26.5884 28.1306 25.7459 28.1921L26.7526 25.5728C26.7653 25.5397 26.7616 25.5025 26.7424 25.4728C26.7235 25.4431 26.6914 25.4241 26.6563 25.4221L25.5877 25.3582C25.5405 25.3551 25.4964 25.3834 25.4789 25.4281L24.402 28.1528C23.7053 28.0639 23.0436 27.8595 22.4337 27.5452C22.3995 27.5275 22.3585 27.529 22.3261 27.5491C22.2932 27.5693 22.2732 27.6051 22.2732 27.6437V27.8032C22.2732 27.8452 22.2969 27.8834 22.3342 27.9023C22.9443 28.2094 23.5956 28.42 24.2724 28.5293L22.9458 31.921C22.8165 32.2519 22.7025 32.5475 22.6039 32.807C22.4759 33.067 22.3548 33.3082 22.242 33.5277C22.01 33.9792 21.7661 34.4164 21.5174 34.8274C21.2708 35.2351 21.0386 35.5694 20.827 35.8213C20.6182 36.07 20.4048 36.2681 20.193 36.4101C19.9908 36.5456 19.793 36.6144 19.6051 36.6144C19.4989 36.6144 19.4244 36.5895 19.3772 36.5385C19.3434 36.5017 19.3025 36.4192 19.2997 36.2338C19.2972 36.0643 19.3178 35.8629 19.3611 35.6348C19.4049 35.4041 19.4877 35.0977 19.6071 34.7239C19.7273 34.3478 19.8642 33.9456 20.0135 33.5288C20.1634 33.1105 20.3537 32.5966 20.5787 32.0012L21.9084 28.5121C21.9213 28.478 21.917 28.4395 21.8964 28.4094C21.8758 28.3792 21.8418 28.3614 21.8056 28.3614H20.6737C20.6281 28.3614 20.5871 28.3896 20.5707 28.4325L19.2411 31.9216C18.9207 32.7569 18.6939 33.3693 18.567 33.7412C18.1656 34.8989 18.0275 35.6935 18.1448 36.1714C18.2849 36.7235 18.7763 37.0036 19.6051 37.0036C19.7807 37.0036 19.9532 36.9732 20.1177 36.9133C20.2812 36.8537 20.4464 36.7564 20.6084 36.6244C20.7644 36.4974 20.9144 36.3572 21.0546 36.2082C21.1957 36.0579 21.3489 35.8554 21.5101 35.607C21.65 35.391 21.7813 35.1802 21.9022 34.9779C21.7942 35.4806 21.774 35.8671 21.8408 36.1454C21.975 36.7148 22.469 37.0036 23.3095 37.0036C23.7973 37.0036 24.274 36.7645 24.7266 36.2926C24.972 36.0365 25.23 35.7064 25.498 35.3056L25.0036 36.5897C24.9905 36.6238 24.9949 36.6622 25.0155 36.6924C25.0359 36.7227 25.07 36.7406 25.1062 36.7406H26.2461C26.2917 36.7406 26.3327 36.7123 26.3489 36.6697L28.1304 32.0002C28.491 31.025 29.0525 30.2151 29.7991 29.5933C30.5403 28.9759 31.2703 28.663 31.9689 28.663C32.189 28.663 32.3705 28.6954 32.5082 28.7601C32.6377 28.8208 32.7276 28.9098 32.7827 29.0318C32.8426 29.1644 32.8766 29.3183 32.8838 29.4887C32.8913 29.6642 32.8668 29.8852 32.811 30.1456C32.7538 30.4121 32.6803 30.6847 32.5923 30.9551C32.503 31.2298 32.3892 31.5553 32.254 31.9214C31.9283 32.7671 31.699 33.382 31.5718 33.7497C31.1758 34.907 31.0404 35.6991 31.1573 36.1702C31.2917 36.7233 31.7805 37.0036 32.61 37.0036C32.7854 37.0036 32.9579 36.9732 33.1225 36.9133C33.2861 36.8537 33.4513 36.7564 33.6134 36.6244C33.7691 36.4974 33.9193 36.3575 34.0594 36.2082C34.2007 36.0579 34.3538 35.8554 34.5149 35.607C34.6722 35.3644 34.8195 35.1272 34.9527 34.9021C35.0853 34.678 35.2422 34.3875 35.4192 34.0395C35.5947 33.6942 35.7534 33.3745 35.891 33.0895C36.0285 32.8049 36.2017 32.4415 36.406 32.0091C36.4223 31.9748 36.4198 31.9345 36.3996 31.9023C36.3794 31.8703 36.3442 31.8507 36.3063 31.8507Z" fill="#F7F5F3"/>
<path d="M44.5837 36.2503C44.1833 36.2503 43.9203 36.0021 43.7792 35.4909C43.5938 34.8307 43.6504 33.9538 43.9473 32.8845C44.2823 31.6725 44.8186 30.6142 45.5407 29.739C46.4523 28.6392 47.4861 28.0817 48.6132 28.0817C49.0416 28.0817 49.3579 28.1825 49.5531 28.3819C49.7327 28.5654 49.8203 28.8438 49.8132 29.2063C49.7978 29.5512 49.7004 29.9822 49.5246 30.4848L49.1817 31.3875C48.9871 31.8403 48.7657 32.2928 48.5237 32.7327C48.2817 33.1728 47.9991 33.6148 47.6838 34.0459C47.3694 34.4765 47.0437 34.8585 46.7162 35.1814C46.3924 35.5007 46.038 35.762 45.6632 35.9589C45.2947 36.1524 44.9316 36.2503 44.5837 36.2503ZM65.5119 31.3278C65.6711 30.8965 65.8738 30.4774 66.1144 30.082C66.3539 29.6882 66.6217 29.3377 66.9103 29.0409C67.1956 28.7475 67.525 28.5116 67.8896 28.3393C68.2513 28.1682 68.6281 28.0817 69.0093 28.0817C69.3756 28.0817 69.6523 28.1856 69.8569 28.4C70.1357 28.6891 70.2179 29.0804 70.1081 29.5955C69.9705 30.2185 69.5851 30.7902 68.9636 31.2946C68.0186 32.0587 66.7434 32.4718 65.1715 32.5236C65.2539 32.1184 65.3683 31.7168 65.5119 31.3278ZM71.9016 31.5135C71.8812 31.4814 71.8459 31.4621 71.8078 31.4621H71.648C71.6059 31.4621 71.5676 31.4854 71.5487 31.523C69.9564 34.6598 68.2546 36.2503 66.491 36.2503C66.0748 36.2503 65.7517 36.098 65.5026 35.784C65.2483 35.4637 65.0949 35.0471 65.0464 34.5455C64.9994 34.0567 65.015 33.509 65.093 32.9163C66.5201 32.8826 67.7387 32.5627 68.7153 31.9652C69.5323 31.4688 70.0964 30.8418 70.3917 30.1021C70.6489 29.4695 70.6499 28.9068 70.3946 28.4295C70.1295 27.9391 69.6634 27.6905 69.0093 27.6905C68.7707 27.6905 68.5305 27.7098 68.2956 27.748C67.16 27.9387 66.1477 28.5494 65.287 29.5631C64.628 30.3339 64.1614 31.2085 63.8959 32.1664C63.2851 33.394 62.7145 34.3667 62.196 35.0621C61.6081 35.8506 61.0679 36.2503 60.5903 36.2503C60.4838 36.2503 60.4089 36.2246 60.3614 36.1713C60.3111 36.1152 60.2822 36.0098 60.2778 35.866C60.2728 35.7019 60.2934 35.5017 60.3396 35.2708C60.3866 35.0352 60.4692 34.7263 60.5847 34.353C60.7004 33.9786 60.8384 33.5736 60.9947 33.1495C61.1495 32.7281 61.3445 32.2113 61.5736 31.6139L62.8731 28.2578H64.4679C64.5295 28.2578 64.5795 28.2079 64.5795 28.1463V27.9861C64.5795 27.9245 64.5295 27.8746 64.4679 27.8746H63.0155L64.0682 25.1518C64.0813 25.1175 64.0769 25.0788 64.0561 25.0484C64.0353 25.0181 64.001 25 63.9644 25H62.8529C62.8071 25 62.7659 25.0283 62.7493 25.0711L61.6576 27.8746H60.5583C60.4969 27.8746 60.447 27.9245 60.447 27.9861V28.1463C60.447 28.2079 60.4969 28.2578 60.5583 28.2578H61.5064L60.2228 31.5326C60.1363 31.7534 60.0566 31.9581 59.9833 32.1475C59.4119 33.2081 58.8268 34.065 58.236 34.7051C58.2805 34.5438 58.303 34.3802 58.303 34.216C58.303 33.8447 58.2258 33.4794 58.0737 33.1304C57.923 32.7845 57.7334 32.4835 57.5108 32.2357C57.2946 31.9949 57.0546 31.7465 56.7979 31.4975C56.5423 31.2492 56.303 31.0258 56.0868 30.8335C55.8793 30.6487 55.7029 30.4449 55.5626 30.2277C55.4286 30.0204 55.3608 29.8186 55.3608 29.6277C55.3608 29.2519 55.4758 28.938 55.7126 28.6683C55.9447 28.4039 56.1917 28.2794 56.4726 28.2898C56.6563 28.2898 56.8058 28.3509 56.9289 28.4767C57.0528 28.6031 57.1129 28.7804 57.1129 29.019C57.1129 29.0808 57.1628 29.1307 57.2242 29.1307C57.6196 29.1307 57.9399 29.018 58.1758 28.7962C58.5009 28.4908 58.4268 28.2183 58.3074 28.0434C58.1453 27.8058 57.8067 27.6905 57.2723 27.6905C56.961 27.6905 56.6657 27.7239 56.3946 27.7896C56.1249 27.8551 55.8785 27.9397 55.6619 28.0414C55.4419 28.1447 55.2251 28.2952 55.0174 28.4891C54.8147 28.6789 54.6354 28.8667 54.4843 29.0477C54.3322 29.23 54.1634 29.4731 53.983 29.7699C53.8044 30.0633 53.6488 30.336 53.52 30.5807C53.3908 30.8256 53.2316 31.1432 53.0464 31.5247V31.5251C52.7488 32.1473 52.4789 32.6934 52.2442 33.1479C52.0099 33.6013 51.7637 34.0407 51.5125 34.4542C51.2632 34.8639 51.0285 35.1999 50.815 35.4533C50.604 35.703 50.3884 35.9021 50.1745 36.0449C49.9703 36.1813 49.7704 36.2503 49.5808 36.2503C49.4235 36.2503 49.3311 36.1923 49.2807 36.0616C49.2404 35.9566 49.2112 35.731 49.3022 35.2537C49.3781 34.855 49.5115 34.3654 49.6984 33.7985C49.8856 33.2304 50.1501 32.4951 50.4841 31.6135L51.8274 28.106C51.8405 28.0717 51.8359 28.0333 51.8151 28.0031C51.7945 27.9728 51.7599 27.9547 51.7233 27.9547H50.5801C50.5336 27.9547 50.4922 27.9836 50.476 28.027L50.197 28.7717C50.1383 28.4904 50.0122 28.2588 49.8203 28.0807C49.5417 27.8216 49.1355 27.6905 48.6132 27.6905C48.3643 27.6905 48.111 27.7098 47.8605 27.7478C46.6051 27.943 45.4485 28.5873 44.4234 29.6624C43.5988 30.52 42.9922 31.5018 42.6182 32.5816C42.0863 33.615 41.5869 34.4469 41.1283 35.0621C40.5404 35.8506 40 36.2503 39.5224 36.2503C39.4161 36.2503 39.3412 36.2246 39.2935 36.1713C39.2432 36.1152 39.2142 36.0098 39.2101 35.866C39.2049 35.7019 39.2257 35.5017 39.2719 35.2708C39.3189 35.0352 39.4013 34.7263 39.5168 34.353C39.6327 33.9786 39.7705 33.5736 39.9268 33.1495C40.0818 32.7281 40.2766 32.2113 40.5057 31.6139L41.8054 28.2578H43.4002C43.4616 28.2578 43.5116 28.2079 43.5116 28.1463V27.9861C43.5116 27.9245 43.4616 27.8746 43.4002 27.8746H41.9475L43.0003 25.1518C43.0136 25.1175 43.009 25.0788 42.9884 25.0484C42.9676 25.0181 42.9333 25 42.8964 25H41.785C41.7392 25 41.698 25.0283 41.6814 25.0711L40.5897 27.8746H39.4906C39.429 27.8746 39.3793 27.9245 39.3793 27.9861V28.1463C39.3793 28.2079 39.429 28.2578 39.4906 28.2578H40.4387L39.1549 31.5326C38.8513 32.3063 38.6303 32.8897 38.4982 33.2657C38.071 34.4667 37.9207 35.2889 38.0389 35.7791C38.1744 36.3514 38.6734 36.6416 39.5224 36.6416C39.8029 36.6416 40.0845 36.5566 40.3598 36.389C40.6264 36.2268 40.885 36.0071 41.1285 35.7358C41.369 35.4674 41.6285 35.1093 41.8999 34.671C42.0385 34.4467 42.1746 34.2164 42.3071 33.9819C42.2651 34.518 42.3311 34.9962 42.5059 35.4117C42.843 36.2277 43.5419 36.6416 44.5837 36.6416C44.9822 36.6416 45.3884 36.5437 45.791 36.3503C46.1887 36.1595 46.5693 35.8944 46.9224 35.5624C47.2714 35.2344 47.601 34.8675 47.9023 34.4717C48.0282 34.306 48.1522 34.1328 48.2733 33.953C48.2579 34.0073 48.2434 34.0601 48.2299 34.1112C48.1516 34.4056 48.0929 34.6929 48.0553 34.9654C48.0164 35.2462 48.0168 35.4868 48.0565 35.6797C48.0971 35.8774 48.1768 36.0535 48.2937 36.2025C48.4138 36.3559 48.5865 36.4694 48.8071 36.5401C49.0171 36.6075 49.2774 36.6416 49.5808 36.6416C49.7579 36.6416 49.9323 36.611 50.0983 36.5507C50.2635 36.4909 50.4304 36.3932 50.5942 36.2603C50.7515 36.1327 50.9032 35.9919 51.0447 35.8418C51.1875 35.6907 51.3423 35.4874 51.5048 35.2377C51.6636 34.9941 51.8124 34.7556 51.947 34.5293C52.0808 34.3037 52.2394 34.012 52.4181 33.6622C52.595 33.3158 52.7552 32.9946 52.8949 32.7073C53.0337 32.4213 53.2087 32.0558 53.4149 31.6214C53.7947 30.8291 54.1617 30.1716 54.5057 29.6664C54.688 29.3989 54.8815 29.1623 55.0848 28.9579C55.0085 29.1633 54.9702 29.387 54.9702 29.6277C54.9702 29.8957 55.0432 30.1693 55.187 30.4408C55.3258 30.7021 55.4952 30.9574 55.6906 31.1991C55.8802 31.4341 56.0729 31.6831 56.2633 31.9402C56.4485 32.1899 56.6089 32.4909 56.7404 32.8344C56.8709 33.1753 56.9371 33.5401 56.9371 33.9195C56.9371 34.3463 56.8101 34.7305 56.5598 35.0614C56.3059 35.397 56.0017 35.6454 55.6558 35.7996C55.3073 35.9551 54.9506 36.0316 54.5937 36.0262C54.3453 36.0262 54.0918 35.9849 53.8404 35.9036C53.5939 35.8238 53.3758 35.6938 53.1916 35.5167C53.0156 35.3477 52.93 35.1579 52.93 34.9365C52.93 34.875 52.8803 34.8251 52.8187 34.8251H52.6589C52.5975 34.8251 52.5476 34.875 52.5476 34.9365C52.5476 35.3126 52.6837 35.6396 52.9519 35.9082C53.2116 36.1682 53.5268 36.358 53.8887 36.4721C54.2446 36.5846 54.6243 36.6416 55.0174 36.6416C55.4423 36.6416 55.8583 36.5792 56.2539 36.4563C56.6466 36.3343 57.0043 36.1784 57.3168 35.9934C57.6294 35.8086 57.9405 35.566 58.2414 35.2726C58.5392 34.9826 58.7978 34.6989 59.0107 34.4291C59.1137 34.2983 59.219 34.1549 59.3258 34C59.0867 34.8101 59.0147 35.3963 59.1068 35.7791C59.2423 36.3514 59.7413 36.6416 60.5903 36.6416C60.8706 36.6416 61.1524 36.5566 61.4277 36.389C61.6941 36.2268 61.9527 36.0071 62.1962 35.7358C62.437 35.4674 62.6964 35.1093 62.9676 34.671C63.2131 34.2742 63.4499 33.8582 63.6739 33.4335C63.6291 34.1567 63.749 34.7935 64.0343 35.3338C64.5008 36.2015 65.3274 36.6416 66.491 36.6416C67.0485 36.6416 67.5974 36.5139 68.122 36.2622C68.6431 36.0123 69.1342 35.6502 69.5812 35.1862C70.0236 34.727 70.441 34.1975 70.8216 33.6121C71.201 33.0289 71.5668 32.3587 71.9089 31.6205C71.9247 31.5858 71.922 31.5455 71.9016 31.5135Z" fill="#F7F5F3"/>
</g>
<defs>
<clipPath id="clip0_2003_528">
<rect width="72" height="58" fill="white"/>
</clipPath>
</defs>
</svg>
