<svg aria-hidden="true" style="position: absolute; width: 0; height: 0; overflow: hidden;" version="1.1" xmlns="http://www.w3.org/2000/svg" xmlns:xlink="http://www.w3.org/1999/xlink">
<defs>

<!-- <symbol id="icon-logo" viewBox="0 0 35 32">
<path d="M17.484 0c2.086 0 3.872 2.599 4.613 6.285 3.101-2.035 6.157-2.585 7.619-1.123 1.473 1.473 0.902 4.566-1.173 7.692 3.681 0.742 6.276 2.528 6.276 4.612-0 2.438-3.551 4.467-8.24 4.896 2.397 3.316 3.136 6.706 1.573 8.27-1.945 1.945-6.715 0.327-10.655-3.613-0.075-0.075-0.15-0.151-0.224-0.227-3.914 3.846-8.6 5.407-10.524 3.483-1.51-1.51-0.872-4.723 1.332-7.928-4.61-0.459-8.082-2.47-8.082-4.881 0-2.083 2.591-3.867 6.268-4.61-2.076-3.126-2.646-6.221-1.173-7.694 1.483-1.483 4.609-0.894 7.757 1.216 0.73-3.736 2.529-6.378 4.632-6.378z"></path>
</symbol> -->


</defs>
</svg>
